PathFileType	3	(X/Y/Z)	random_1__view1_aligned.trc
DataRate	CameraRate	NumFrames	NumMarkers	Units	OrigDataRate	OrigDataStartFrame	OrigNumFrames
100.0	100.0	12	19	mm	100.0	1854	1930
Frame#	Time	pelvis			neck			head			hip_left			hip_right			knee_left			knee_right			ankle_left			ankle_right			heel_left			heel_right			toe_left			toe_right			shoulder_left			shoulder_right			elbow_left			elbow_right			wrist_left			wrist_right			
		X1	Y1	Z1	X2	Y2	Z2	X3	Y3	Z3	X4	Y4	Z4	X5	Y5	Z5	X6	Y6	Z6	X7	Y7	Z7	X8	Y8	Z8	X9	Y9	Z9	X10	Y10	Z10	X11	Y11	Z11	X12	Y12	Z12	X13	Y13	Z13	X14	Y14	Z14	X15	Y15	Z15	X16	Y16	Z16	X17	Y17	Z17	X18	Y18	Z18	X19	Y19	Z19	
1854	18.53000	-63.081309	929.197451	391.541980	40.881565	1496.711507	365.594374	185.634728	1554.408806	303.993008	-98.478170	925.494745	319.298694	-27.684443	932.900156	463.785269	58.075276	533.514675	211.286808	75.825385	522.730912	369.589058	-135.488858	264.708835	407.685922	-11.492743	134.578458	346.165295	-176.093783	251.634141	444.289037	-49.424554	89.356281	348.057138	-30.291201	106.187526	375.323603	167.034041	68.117491	306.142255	-54.841371	1496.389551	219.014327	59.587292	1445.110925	537.868529	-35.014314	1325.741265	6.083110	153.949979	1236.121831	690.014080	177.565471	1184.647422	-16.826986	336.140911	1140.813957	614.167595
1855	18.54000	-63.372565	928.087657	391.354538	41.112693	1495.566527	365.500162	185.875053	1553.188364	304.095283	-99.412149	924.522674	319.385672	-27.332979	931.652639	463.323406	56.828315	532.533295	211.211452	78.888166	522.958594	366.226834	-133.906667	266.263880	414.318765	-8.756015	135.359766	342.536371	-173.866981	253.654589	451.834279	-46.689316	90.190759	344.420784	-29.154479	107.203441	381.921247	169.692773	68.924171	302.257734	-54.884292	1494.800124	218.399810	60.689384	1443.332019	537.844004	-34.680298	1318.463925	8.789339	154.617734	1229.897488	686.083888	178.783848	1176.193266	-9.981042	337.600984	1135.116109	602.025428
1856	18.55000	-63.663822	926.977863	391.167097	41.343821	1494.421548	365.405949	186.115377	1551.967922	304.197557	-100.346128	923.550603	319.472650	-26.981516	930.405122	462.861544	55.581354	531.551915	211.136097	81.950948	523.186276	362.864610	-132.324477	267.818926	420.951608	-6.019287	136.141074	338.907448	-171.640179	255.675037	459.379521	-43.954078	91.025238	340.784430	-28.017758	108.219356	388.518892	172.351506	69.730851	298.373214	-54.927213	1493.210698	217.785293	61.791476	1441.553112	537.819479	-34.346281	1311.186585	11.495567	155.285488	1223.673145	682.153695	180.002225	1167.739111	-3.135098	339.061057	1129.418261	589.883260
1857	18.56000	-62.987544	925.448288	390.469049	42.689756	1492.572102	364.162261	187.464437	1549.698931	302.785370	-100.376121	922.142982	319.136537	-25.598928	928.753597	461.801531	53.884589	529.762546	211.293018	85.742084	523.157177	359.425283	-127.676746	267.035839	425.834341	-3.384096	136.937678	335.557288	-165.944183	254.900734	465.036580	-41.377394	91.924931	337.437214	-23.154944	108.229312	392.131649	174.830992	70.558919	294.623158	-54.046024	1490.857493	216.102304	64.027765	1439.235124	536.723409	-32.110011	1303.861510	13.277202	157.918605	1218.052432	677.750864	183.087187	1160.781456	0.786719	343.579674	1124.930483	579.607922
1858	18.57000	-62.311265	923.918714	389.771001	44.035691	1490.722657	362.918574	188.813497	1547.429939	301.373183	-100.406115	920.735361	318.800423	-24.216341	927.102072	460.741519	52.187825	527.973178	211.449940	89.533219	523.128079	355.985955	-123.029015	266.252752	430.717075	-0.748904	137.734282	332.207128	-160.248188	254.126432	470.693638	-38.800710	92.824625	334.089999	-18.292129	108.239267	395.744407	177.310478	71.386987	290.873103	-53.164835	1488.504288	214.419316	66.264053	1436.917136	535.627339	-29.873740	1296.536436	15.058837	160.551723	1212.431719	673.348034	186.172148	1153.823801	4.708537	348.098291	1120.442704	569.332583
1859	18.58000	-61.634987	922.389140	389.072954	45.381626	1488.873211	361.674887	190.162557	1545.160948	299.960996	-100.436108	919.327739	318.464309	-22.833754	925.450547	459.681506	50.491061	526.183810	211.606862	93.324354	523.098980	352.546628	-118.381284	265.469665	435.599808	1.886288	138.530886	328.856968	-154.552192	253.352130	476.350697	-36.224025	93.724318	330.742784	-13.429315	108.249222	399.357164	179.789963	72.215055	287.123048	-52.283646	1486.151083	212.736327	68.500342	1434.599148	534.531268	-27.637470	1289.211361	16.840472	163.184840	1206.811005	668.945203	189.257110	1146.866146	8.630354	352.616908	1115.954926	559.057244
1860	18.59000	-60.958709	920.859565	388.374906	46.727560	1487.023766	360.431199	191.511617	1542.891957	298.548809	-100.466102	917.920118	318.128196	-21.451166	923.799022	458.621494	48.794296	524.394441	211.763784	97.115490	523.069881	349.107300	-113.733552	264.686578	440.482541	4.521479	139.327490	325.506807	-148.856197	252.577827	482.007756	-33.647341	94.624012	327.395568	-8.566501	108.259177	402.969921	182.269449	73.043123	283.372992	-51.402457	1483.797879	211.053338	70.736631	1432.281160	533.435198	-25.401200	1281.886286	18.622107	165.817958	1201.190292	664.542372	192.342071	1139.908491	12.552172	357.135525	1111.467148	548.781905
1861	18.60000	-60.282431	919.329991	387.676858	48.073495	1485.174320	359.187512	192.860676	1540.622966	297.136622	-100.496095	916.512497	317.792082	-20.068579	922.147497	457.561482	47.097532	522.605073	211.920706	100.906625	523.040782	345.667973	-109.085821	263.903491	445.365274	7.156671	140.124094	322.156647	-143.160202	251.803525	487.664814	-31.070657	95.523706	324.048353	-3.703687	108.269133	406.582679	184.748935	73.871191	279.622937	-50.521268	1481.444674	209.370350	72.972920	1429.963172	532.339127	-23.164929	1274.561211	20.403742	168.451075	1195.569579	660.139541	195.427033	1132.950837	16.473989	361.654142	1106.979369	538.506566
1862	18.61000	-59.606153	917.800416	386.978810	49.419430	1483.324875	357.943824	194.209736	1538.353975	295.724434	-100.526089	915.104875	317.455968	-18.685992	920.495972	456.501469	45.400767	520.815705	212.077628	104.697760	523.011683	342.228646	-104.438090	263.120404	450.248008	9.791862	140.920698	318.806487	-137.464206	251.029223	493.321873	-28.493972	96.423399	320.701138	1.159127	108.279088	410.195436	187.228421	74.699258	275.872882	-49.640079	1479.091469	207.687361	75.209209	1427.645185	531.243057	-20.928659	1267.236137	22.185377	171.084192	1189.948865	655.736710	198.511994	1125.993182	20.395807	366.172759	1102.491591	528.231227
1863	18.62000	-58.929875	916.270842	386.280762	50.765365	1481.475430	356.700137	195.558796	1536.084984	294.312247	-100.556082	913.697254	317.119854	-17.303405	918.844447	455.441457	43.704003	519.026336	212.234550	108.488895	522.982585	338.789318	-99.790359	262.337317	455.130741	12.427054	141.717302	315.456327	-131.768211	250.254920	498.978932	-25.917288	97.323093	317.353923	6.021941	108.289043	413.808194	189.707907	75.527326	272.122826	-48.758890	1476.738265	206.004372	77.445498	1425.327197	530.146987	-18.692389	1259.911062	23.967013	173.717310	1184.328152	651.333879	201.596955	1119.035527	24.317624	370.691376	1098.003812	517.955888
1864	18.63000	-58.253597	914.741267	385.582715	52.111300	1479.625984	355.456450	196.907856	1533.815993	292.900060	-100.586076	912.289633	316.783741	-15.920817	917.192922	454.381444	42.007239	517.236968	212.391472	112.280031	522.953486	335.349991	-95.142628	261.554230	460.013474	15.062245	142.513905	312.106167	-126.072216	249.480618	504.635990	-23.340603	98.222787	314.006707	10.884755	108.298998	417.420951	192.187393	76.355394	268.372771	-47.877701	1474.385060	204.321384	79.681787	1423.009209	529.050916	-16.456119	1252.585987	25.748648	176.350427	1178.707439	646.931048	204.681917	1112.077872	28.239442	375.209993	1093.516034	507.680549
1865	18.64000	-57.577319	913.211693	384.884667	53.457234	1477.776539	354.212762	198.256916	1531.547002	291.487873	-100.616069	910.882011	316.447627	-14.538230	915.541397	453.321432	40.310474	515.447600	212.548393	116.071166	522.924387	331.910663	-90.494897	260.771143	464.896207	17.697437	143.310509	308.756006	-120.376220	248.706316	510.293049	-20.763919	99.122480	310.659492	15.747570	108.308954	421.033709	194.666878	77.183462	264.622716	-46.996512	1472.031855	202.638395	81.918076	1420.691221	527.954846	-14.219848	1245.260912	27.530283	178.983545	1173.086725	642.528217	207.766878	1105.120217	32.161259	379.728610	1089.028255	497.405210
